<?xml version="1.0" encoding="iso-8859-1"?>
<!-- Generator: Adobe Illustrator 19.0.0, SVG Export Plug-In . SVG Version: 6.00 Build 0)  -->
<svg version="1.1" id="Layer_1" xmlns="http://www.w3.org/2000/svg" xmlns:xlink="http://www.w3.org/1999/xlink" x="0px" y="0px"
	 viewBox="0 0 229.383 229.383" style="enable-background:new 0 0 229.383 229.383;" xml:space="preserve">
<g>
	<g>
		<g>
			<path d="M207.351,109.67c-2.261-4.143-7.004-6.171-13.096-5.52c-8.578,0.9-31.976,18.249-43.15,26.878
				c-1.523-6.72-3.78-17.073-4.222-21.263c-0.257-2.423-0.631-9.904-1.065-18.568c-0.738-14.706-1.752-34.848-2.979-46.504
				c-0.998-9.529-3.413-15.404-7.6-18.49c-4.021-2.967-8.55-2.498-11.975-2.127c-6.009,0.631-6.747,7.998-7.544,42.061
				c-0.154,6.609-0.335,14.434-0.679,21.007c-1.799-11.277-4.116-31.116-7.015-65.215c-0.308-3.611-0.529-6.195-0.647-7.315
				c-0.631-6.005-4.96-11.663-10.523-13.759C92.349-0.85,87.779,0.022,84.307,3.23c-5.109,4.715-5.228,19.484-0.469,58.531
				c0.343,2.798,0.627,5.137,0.805,6.802c0.864,8.255,1.219,16.939,1.053,22.972c-3.109-8.613-7.154-23.027-9.659-31.952
				c-2.367-8.444-4.415-15.739-5.832-19.693c-2.328-6.483-5.196-12.634-10.373-13.731c-4.924-1.034-8.945,3.168-10.267,4.554
				c-4.11,4.309-2.903,16.339,1.07,44.819c0.967,6.925,2.146,15.377,2.726,21.709c-0.478-1.531-0.959-3.153-1.421-4.711
				c-1.701-5.721-3.812-12.839-7.051-20.901C38.218,55.021,31.072,54.075,27.43,54.97c-4.261,1.057-7.079,5.587-6.558,10.539
				c0.754,7.193,9.75,57.465,21.326,97.045v0.004c10.267,35.081,24.613,66.825,58.444,66.825c4.096,0,8.483-0.465,13.175-1.448
				c40.495-8.46,49.179-39.126,52.888-52.217l0.422-1.488c2.687-9.328,23.895-34.111,32.951-44.693
				c2.288-2.675,4.064-4.755,5.023-5.946C208.716,119.092,209.58,113.757,207.351,109.67z M198.804,118.528
				c-0.931,1.156-2.651,3.164-4.865,5.753c-16.312,19.062-31.787,38.033-34.576,47.716l-0.434,1.519
				c-3.587,12.673-11.06,39.051-46.765,46.512c-25.28,5.267-45.557-2.841-62.208-59.742v0.004
				c-11.999-41.02-20.517-90.563-21.05-95.625c-0.103-1.006,0.335-1.756,0.438-1.846c0.754-0.036,4.076,1.926,8.049,11.825
				c3.097,7.71,5.149,14.627,6.798,20.186c3.164,10.661,5.465,18.438,12.575,17.618c1.322-0.138,2.517-0.809,3.362-1.894
				c2.766-3.535,1.846-12.22-1.488-36.139c-1.814-12.994-4.848-34.746-3.227-38.124c1.827-1.914,2.707-2.182,2.711-2.233
				c0.248,0.126,1.827,1.18,4.474,8.562c1.322,3.681,3.429,11.194,5.658,19.145c8.203,29.238,11.786,40.12,15.558,42.929
				c1.807,1.349,3.981,1.551,5.808,0.505c1.634-0.927,6.593-3.748,3.054-37.48c-0.177-1.701-0.465-4.084-0.817-6.937
				c-3.784-31.057-4.455-48.453-2.068-51.617c0.442-0.411,1.792-1.661,4.214-0.749c2.726,1.03,5.023,4.056,5.339,7.043
				c0.114,1.097,0.328,3.622,0.627,7.158c6.183,72.7,9.6,81.12,12.836,83.795c1.042,0.856,2.3,1.286,3.606,1.124
				c5.883-0.619,6.605-7.84,7.386-41.209c0.276-11.845,0.682-29.261,2.072-34.383c2.02-0.154,3.453-0.063,4.573,0.766
				c1.488,1.097,3.453,4.214,4.36,12.827c1.204,11.439,2.206,31.451,2.939,46.066c0.462,9.146,0.825,16.367,1.105,19.011
				c0.722,6.909,5.607,27.565,5.816,28.441l1.464,6.187l4.979-3.954c14.749-11.715,38.147-28.488,43.991-29.103
				c2.568-0.268,4.554,0.253,5.157,1.357C200.769,114.483,200.521,116.389,198.804,118.528z"/>
			<path d="M127.115,124.32c-1.365-1.752-3.898-2.083-5.67-0.706L66.9,166.038c-1.76,1.369-2.079,3.906-0.706,5.67
				c0.797,1.022,1.989,1.558,3.192,1.558c0.864,0,1.74-0.276,2.478-0.852l54.545-42.424
				C128.168,128.621,128.488,126.084,127.115,124.32z"/>
			<path d="M131.183,144.557c-1.345-1.779-3.879-2.123-5.662-0.769l-50.505,38.384c-1.776,1.35-2.119,3.882-0.769,5.662
				c0.793,1.046,2,1.594,3.22,1.594c0.852,0,1.709-0.268,2.442-0.825l50.505-38.384C132.189,148.87,132.532,146.337,131.183,144.557
				z"/>
			<path d="M135.622,157.93l-50.505,38.384c-1.776,1.35-2.119,3.882-0.769,5.662c0.793,1.046,2,1.594,3.22,1.594
				c0.852,0,1.709-0.268,2.442-0.825l50.505-38.384c1.776-1.349,2.119-3.882,0.769-5.662
				C139.939,156.923,137.405,156.576,135.622,157.93z"/>
		</g>
	</g>
</g>
<g>
</g>
<g>
</g>
<g>
</g>
<g>
</g>
<g>
</g>
<g>
</g>
<g>
</g>
<g>
</g>
<g>
</g>
<g>
</g>
<g>
</g>
<g>
</g>
<g>
</g>
<g>
</g>
<g>
</g>
</svg>
